<svg width="32" height="34" viewBox="0 0 32 34" fill="none" xmlns="http://www.w3.org/2000/svg">
<path d="M32 9.88125C32 4.4625 25.8909 0.10625 18.3273 0.10625L0 0V34H18.3273C25.8909 34 32 29.6437 32 24.225C32 21.4625 30.4 18.9125 27.6364 17.1062C30.4 15.1937 32 12.6437 32 9.88125ZM18.3273 28.5813H7.12727V19.6562H18.3273C21.8182 19.6562 24.5818 21.675 24.5818 24.1188C24.5818 26.5625 21.8182 28.5813 18.3273 28.5813ZM18.3273 14.3438H7.12727V5.41875H18.3273C21.8182 5.41875 24.5818 7.4375 24.5818 9.88125C24.5818 12.325 21.8182 14.3438 18.3273 14.3438Z" fill="white"/>
</svg>
