<svg width="17" height="20" viewBox="0 0 17 20" fill="none" xmlns="http://www.w3.org/2000/svg">
<path d="M16.2344 6.02187C16.2344 2.99375 13.2812 0.559375 9.625 0.559375L0.765625 0.5V19.5H9.625C13.2812 19.5 16.2344 17.0656 16.2344 14.0375C16.2344 12.4937 15.4609 11.0687 14.125 10.0594C15.4609 8.99062 16.2344 7.56562 16.2344 6.02187ZM9.625 16.4719H4.21094V11.4844H9.625C11.3125 11.4844 12.6484 12.6125 12.6484 13.9781C12.6484 15.3438 11.3125 16.4719 9.625 16.4719ZM9.625 8.51562H4.21094V3.52813H9.625C11.3125 3.52813 12.6484 4.65625 12.6484 6.02187C12.6484 7.3875 11.3125 8.51562 9.625 8.51562Z" fill="#601DB5"/>
</svg>
